<?xml version="1.0" standalone="yes"?>

<svg version="1.1" viewBox="0.0 0.0 960.0 540.0" fill="none" stroke="none" stroke-linecap="square" stroke-miterlimit="10" xmlns="http://www.w3.org/2000/svg" xmlns:xlink="http://www.w3.org/1999/xlink"><clipPath id="p.0"><path d="m0 0l960.0 0l0 540.0l-960.0 0l0 -540.0z" clip-rule="nonzero"></path></clipPath><g clip-path="url(#p.0)"><path fill="#ffffff" d="m0 0l960.0 0l0 540.0l-960.0 0z" fill-rule="nonzero"></path><path fill="#eeeeee" d="m119.11024 191.7536l0 0c0 -8.996185 7.2928543 -16.289032 16.28904 -16.289032l114.00459 0c4.3201294 0 8.463318 1.716156 11.518097 4.7709503c3.054779 3.054779 4.770935 7.1979675 4.770935 11.518082l0 65.154205c0 8.996185 -7.2928467 16.289032 -16.289032 16.289032l-114.00459 0c-8.996185 0 -16.28904 -7.2928467 -16.28904 -16.289032z" fill-rule="nonzero"></path><path stroke="#595959" stroke-width="1.0" stroke-linejoin="round" stroke-linecap="butt" d="m119.11024 191.7536l0 0c0 -8.996185 7.2928543 -16.289032 16.28904 -16.289032l114.00459 0c4.3201294 0 8.463318 1.716156 11.518097 4.7709503c3.054779 3.054779 4.770935 7.1979675 4.770935 11.518082l0 65.154205c0 8.996185 -7.2928467 16.289032 -16.289032 16.289032l-114.00459 0c-8.996185 0 -16.28904 -7.2928467 -16.28904 -16.289032z" fill-rule="nonzero"></path><path fill="#000000" d="m140.70926 214.92258l0 -1.609375l5.765625 0l0 5.046875q-1.328125 1.0625 -2.75 1.59375q-1.40625 0.53125 -2.890625 0.53125q-2.0 0 -3.640625 -0.859375q-1.625 -0.859375 -2.46875 -2.484375q-0.828125 -1.625 -0.828125 -3.625q0 -1.984375 0.828125 -3.703125q0.828125 -1.71875 2.390625 -2.546875q1.5625 -0.84375 3.59375 -0.84375q1.46875 0 2.65625 0.484375q1.203125 0.46875 1.875 1.328125q0.671875 0.84375 1.03125 2.21875l-1.625 0.4375q-0.3125 -1.03125 -0.765625 -1.625q-0.453125 -0.59375 -1.296875 -0.953125q-0.84375 -0.359375 -1.875 -0.359375q-1.234375 0 -2.140625 0.375q-0.890625 0.375 -1.453125 1.0q-0.546875 0.609375 -0.84375 1.34375q-0.53125 1.25 -0.53125 2.734375q0 1.8125 0.625 3.046875q0.640625 1.21875 1.828125 1.8125q1.203125 0.59375 2.546875 0.59375q1.171875 0 2.28125 -0.453125q1.109375 -0.453125 1.6875 -0.953125l0 -2.53125l-4.0 0zm7.917679 5.328125l0 -9.859375l1.5 0l0 1.5q0.578125 -1.046875 1.0625 -1.375q0.484375 -0.34375 1.078125 -0.34375q0.84375 0 1.71875 0.546875l-0.578125 1.546875q-0.609375 -0.359375 -1.234375 -0.359375q-0.546875 0 -0.984375 0.328125q-0.421875 0.328125 -0.609375 0.90625q-0.28125 0.890625 -0.28125 1.953125l0 5.15625l-1.671875 0zm12.665802 -1.21875q-0.9375 0.796875 -1.796875 1.125q-0.859375 0.3125 -1.84375 0.3125q-1.609375 0 -2.484375 -0.78125q-0.875 -0.796875 -0.875 -2.03125q0 -0.734375 0.328125 -1.328125q0.328125 -0.59375 0.859375 -0.953125q0.53125 -0.359375 1.203125 -0.546875q0.5 -0.140625 1.484375 -0.25q2.03125 -0.25 2.984375 -0.578125q0 -0.34375 0 -0.4375q0 -1.015625 -0.46875 -1.4375q-0.640625 -0.5625 -1.90625 -0.5625q-1.171875 0 -1.734375 0.40625q-0.5625 0.40625 -0.828125 1.46875l-1.640625 -0.234375q0.234375 -1.046875 0.734375 -1.6875q0.515625 -0.640625 1.46875 -0.984375q0.96875 -0.359375 2.25 -0.359375q1.265625 0 2.046875 0.296875q0.78125 0.296875 1.15625 0.75q0.375 0.453125 0.515625 1.140625q0.09375 0.421875 0.09375 1.53125l0 2.234375q0 2.328125 0.09375 2.953125q0.109375 0.609375 0.4375 1.171875l-1.75 0q-0.265625 -0.515625 -0.328125 -1.21875zm-0.140625 -3.71875q-0.90625 0.359375 -2.734375 0.625q-1.03125 0.140625 -1.453125 0.328125q-0.421875 0.1875 -0.65625 0.546875q-0.234375 0.359375 -0.234375 0.796875q0 0.671875 0.5 1.125q0.515625 0.4375 1.484375 0.4375q0.96875 0 1.71875 -0.421875q0.75 -0.4375 1.109375 -1.15625q0.265625 -0.578125 0.265625 -1.671875l0 -0.609375zm4.078842 8.71875l0 -13.640625l1.53125 0l0 1.28125q0.53125 -0.75 1.203125 -1.125q0.6875 -0.375 1.640625 -0.375q1.265625 0 2.234375 0.65625q0.96875 0.640625 1.453125 1.828125q0.5 1.1875 0.5 2.59375q0 1.515625 -0.546875 2.734375q-0.546875 1.203125 -1.578125 1.84375q-1.03125 0.640625 -2.171875 0.640625q-0.84375 0 -1.515625 -0.34375q-0.65625 -0.359375 -1.078125 -0.890625l0 4.796875l-1.671875 0zm1.515625 -8.65625q0 1.90625 0.765625 2.8125q0.78125 0.90625 1.875 0.90625q1.109375 0 1.890625 -0.9375q0.796875 -0.9375 0.796875 -2.921875q0 -1.875 -0.78125 -2.8125q-0.765625 -0.9375 -1.84375 -0.9375q-1.0625 0 -1.890625 1.0q-0.8125 1.0 -0.8125 2.890625zm8.860092 4.875l0 -13.59375l1.671875 0l0 4.875q1.171875 -1.359375 2.953125 -1.359375q1.09375 0 1.890625 0.4375q0.8125 0.421875 1.15625 1.1875q0.359375 0.765625 0.359375 2.203125l0 6.25l-1.671875 0l0 -6.25q0 -1.25 -0.546875 -1.8125q-0.546875 -0.578125 -1.53125 -0.578125q-0.75 0 -1.40625 0.390625q-0.640625 0.375 -0.921875 1.046875q-0.28125 0.65625 -0.28125 1.8125l0 5.390625l-1.671875 0zm20.891342 -1.453125q1.265625 0.859375 2.3125 1.265625l-0.53125 1.25q-1.453125 -0.53125 -2.921875 -1.671875q-1.5 0.84375 -3.328125 0.84375q-1.84375 0 -3.359375 -0.890625q-1.5 -0.890625 -2.3125 -2.5q-0.8125 -1.625 -0.8125 -3.640625q0 -2.015625 0.8125 -3.65625q0.828125 -1.65625 2.328125 -2.515625q1.515625 -0.875 3.375 -0.875q1.890625 0 3.390625 0.90625q1.515625 0.890625 2.3125 2.5q0.796875 1.609375 0.796875 3.625q0 1.6875 -0.515625 3.03125q-0.515625 1.328125 -1.546875 2.328125zm-3.953125 -2.296875q1.5625 0.421875 2.5625 1.296875q1.59375 -1.453125 1.59375 -4.359375q0 -1.65625 -0.5625 -2.875q-0.5625 -1.234375 -1.640625 -1.921875q-1.078125 -0.6875 -2.421875 -0.6875q-2.015625 0 -3.34375 1.390625q-1.328125 1.375 -1.328125 4.109375q0 2.65625 1.3125 4.078125q1.3125 1.40625 3.359375 1.40625q0.953125 0 1.8125 -0.359375q-0.84375 -0.546875 -1.78125 -0.78125l0.4375 -1.296875zm8.089554 3.75l0 -13.59375l1.796875 0l0 11.984375l6.703125 0l0 1.609375l-8.5 0z" fill-rule="nonzero"></path><path fill="#000000" d="m144.05301 237.48508l1.796875 0.453125q-0.5625 2.21875 -2.03125 3.390625q-1.46875 1.15625 -3.59375 1.15625q-2.203125 0 -3.578125 -0.890625q-1.375 -0.90625 -2.09375 -2.59375q-0.71875 -1.703125 -0.71875 -3.65625q0 -2.125 0.796875 -3.703125q0.8125 -1.578125 2.3125 -2.390625q1.5 -0.828125 3.296875 -0.828125q2.046875 0 3.4375 1.046875q1.390625 1.03125 1.9375 2.90625l-1.765625 0.421875q-0.46875 -1.484375 -1.375 -2.15625q-0.90625 -0.6875 -2.265625 -0.6875q-1.5625 0 -2.625 0.75q-1.046875 0.75 -1.484375 2.03125q-0.421875 1.265625 -0.421875 2.609375q0 1.734375 0.5 3.03125q0.515625 1.28125 1.578125 1.921875q1.078125 0.640625 2.3125 0.640625q1.515625 0 2.5625 -0.859375q1.046875 -0.875 1.421875 -2.59375zm3.5198212 4.765625l0 -13.59375l1.671875 0l0 13.59375l-1.671875 0zm4.191696 -11.6875l0 -1.90625l1.671875 0l0 1.90625l-1.671875 0zm0 11.6875l0 -9.859375l1.671875 0l0 9.859375l-1.671875 0zm10.879196 -3.171875l1.71875 0.21875q-0.40625 1.5 -1.515625 2.34375q-1.09375 0.828125 -2.8125 0.828125q-2.15625 0 -3.421875 -1.328125q-1.265625 -1.328125 -1.265625 -3.734375q0 -2.484375 1.265625 -3.859375q1.28125 -1.375 3.328125 -1.375q1.984375 0 3.234375 1.34375q1.25 1.34375 1.25 3.796875q0 0.140625 -0.015625 0.4375l-7.34375 0q0.09375 1.625 0.921875 2.484375q0.828125 0.859375 2.0625 0.859375q0.90625 0 1.546875 -0.46875q0.65625 -0.484375 1.046875 -1.546875zm-5.484375 -2.703125l5.5 0q-0.109375 -1.234375 -0.625 -1.859375q-0.796875 -0.96875 -2.078125 -0.96875q-1.140625 0 -1.9375 0.78125q-0.78125 0.765625 -0.859375 2.046875zm9.110092 5.875l0 -9.859375l1.5 0l0 1.40625q1.09375 -1.625 3.140625 -1.625q0.890625 0 1.640625 0.328125q0.75 0.3125 1.109375 0.84375q0.375 0.515625 0.53125 1.21875q0.09375 0.46875 0.09375 1.625l0 6.0625l-1.671875 0l0 -6.0q0 -1.015625 -0.203125 -1.515625q-0.1875 -0.515625 -0.6875 -0.8125q-0.5 -0.296875 -1.171875 -0.296875q-1.0625 0 -1.84375 0.671875q-0.765625 0.671875 -0.765625 2.578125l0 5.375l-1.671875 0zm14.031967 -1.5l0.234375 1.484375q-0.703125 0.140625 -1.265625 0.140625q-0.90625 0 -1.40625 -0.28125q-0.5 -0.296875 -0.703125 -0.75q-0.203125 -0.46875 -0.203125 -1.984375l0 -5.65625l-1.234375 0l0 -1.3125l1.234375 0l0 -2.4375l1.65625 -1.0l0 3.4375l1.6875 0l0 1.3125l-1.6875 0l0 5.75q0 0.71875 0.078125 0.921875q0.09375 0.203125 0.296875 0.328125q0.203125 0.125 0.578125 0.125q0.265625 0 0.734375 -0.078125z" fill-rule="nonzero"></path><path fill="#eeeeee" d="m588.9239 191.7536l0 0c0 -8.996185 7.2928467 -16.289032 16.289062 -16.289032l114.00458 0c4.3201294 0 8.463318 1.716156 11.518066 4.7709503c3.0548096 3.054779 4.770996 7.1979675 4.770996 11.518082l0 65.154205c0 8.996185 -7.2929077 16.289032 -16.289062 16.289032l-114.00458 0c-8.996216 0 -16.289062 -7.2928467 -16.289062 -16.289032z" fill-rule="nonzero"></path><path stroke="#595959" stroke-width="1.0" stroke-linejoin="round" stroke-linecap="butt" d="m588.9239 191.7536l0 0c0 -8.996185 7.2928467 -16.289032 16.289062 -16.289032l114.00458 0c4.3201294 0 8.463318 1.716156 11.518066 4.7709503c3.0548096 3.054779 4.770996 7.1979675 4.770996 11.518082l0 65.154205c0 8.996185 -7.2929077 16.289032 -16.289062 16.289032l-114.00458 0c-8.996216 0 -16.289062 -7.2928467 -16.289062 -16.289032z" fill-rule="nonzero"></path><path fill="#000000" d="m610.5229 214.92258l0 -1.609375l5.765625 0l0 5.046875q-1.328125 1.0625 -2.75 1.59375q-1.40625 0.53125 -2.890625 0.53125q-2.0 0 -3.640625 -0.859375q-1.625 -0.859375 -2.46875 -2.484375q-0.828125 -1.625 -0.828125 -3.625q0 -1.984375 0.828125 -3.703125q0.828125 -1.71875 2.390625 -2.546875q1.5625 -0.84375 3.59375 -0.84375q1.46875 0 2.65625 0.484375q1.203125 0.46875 1.875 1.328125q0.671875 0.84375 1.03125 2.21875l-1.625 0.4375q-0.3125 -1.03125 -0.765625 -1.625q-0.453125 -0.59375 -1.296875 -0.953125q-0.84375 -0.359375 -1.875 -0.359375q-1.234375 0 -2.140625 0.375q-0.890625 0.375 -1.453125 1.0q-0.546875 0.609375 -0.84375 1.34375q-0.53125 1.25 -0.53125 2.734375q0 1.8125 0.625 3.046875q0.640625 1.21875 1.828125 1.8125q1.203125 0.59375 2.546875 0.59375q1.171875 0 2.28125 -0.453125q1.109375 -0.453125 1.6875 -0.953125l0 -2.53125l-4.0 0zm7.9177246 5.328125l0 -9.859375l1.5 0l0 1.5q0.578125 -1.046875 1.0625 -1.375q0.484375 -0.34375 1.078125 -0.34375q0.84375 0 1.71875 0.546875l-0.578125 1.546875q-0.609375 -0.359375 -1.234375 -0.359375q-0.546875 0 -0.984375 0.328125q-0.421875 0.328125 -0.609375 0.90625q-0.28125 0.890625 -0.28125 1.953125l0 5.15625l-1.671875 0zm12.6657715 -1.21875q-0.9375 0.796875 -1.796875 1.125q-0.859375 0.3125 -1.84375 0.3125q-1.609375 0 -2.484375 -0.78125q-0.875 -0.796875 -0.875 -2.03125q0 -0.734375 0.328125 -1.328125q0.328125 -0.59375 0.859375 -0.953125q0.53125 -0.359375 1.203125 -0.546875q0.5 -0.140625 1.484375 -0.25q2.03125 -0.25 2.984375 -0.578125q0 -0.34375 0 -0.4375q0 -1.015625 -0.46875 -1.4375q-0.640625 -0.5625 -1.90625 -0.5625q-1.171875 0 -1.734375 0.40625q-0.5625 0.40625 -0.828125 1.46875l-1.640625 -0.234375q0.234375 -1.046875 0.734375 -1.6875q0.515625 -0.640625 1.46875 -0.984375q0.96875 -0.359375 2.25 -0.359375q1.265625 0 2.046875 0.296875q0.78125 0.296875 1.15625 0.75q0.375 0.453125 0.515625 1.140625q0.09375 0.421875 0.09375 1.53125l0 2.234375q0 2.328125 0.09375 2.953125q0.109375 0.609375 0.4375 1.171875l-1.75 0q-0.265625 -0.515625 -0.328125 -1.21875zm-0.140625 -3.71875q-0.90625 0.359375 -2.734375 0.625q-1.03125 0.140625 -1.453125 0.328125q-0.421875 0.1875 -0.65625 0.546875q-0.234375 0.359375 -0.234375 0.796875q0 0.671875 0.5 1.125q0.515625 0.4375 1.484375 0.4375q0.96875 0 1.71875 -0.421875q0.75 -0.4375 1.109375 -1.15625q0.265625 -0.578125 0.265625 -1.671875l0 -0.609375zm4.0788574 8.71875l0 -13.640625l1.53125 0l0 1.28125q0.53125 -0.75 1.203125 -1.125q0.6875 -0.375 1.640625 -0.375q1.265625 0 2.234375 0.65625q0.96875 0.640625 1.453125 1.828125q0.5 1.1875 0.5 2.59375q0 1.515625 -0.546875 2.734375q-0.546875 1.203125 -1.578125 1.84375q-1.03125 0.640625 -2.171875 0.640625q-0.84375 0 -1.515625 -0.34375q-0.65625 -0.359375 -1.078125 -0.890625l0 4.796875l-1.671875 0zm1.515625 -8.65625q0 1.90625 0.765625 2.8125q0.78125 0.90625 1.875 0.90625q1.109375 0 1.890625 -0.9375q0.796875 -0.9375 0.796875 -2.921875q0 -1.875 -0.78125 -2.8125q-0.765625 -0.9375 -1.84375 -0.9375q-1.0625 0 -1.890625 1.0q-0.8125 1.0 -0.8125 2.890625zm8.860107 4.875l0 -13.59375l1.671875 0l0 4.875q1.171875 -1.359375 2.953125 -1.359375q1.09375 0 1.890625 0.4375q0.8125 0.421875 1.15625 1.1875q0.359375 0.765625 0.359375 2.203125l0 6.25l-1.671875 0l0 -6.25q0 -1.25 -0.546875 -1.8125q-0.546875 -0.578125 -1.53125 -0.578125q-0.75 0 -1.40625 0.390625q-0.640625 0.375 -0.921875 1.046875q-0.28125 0.65625 -0.28125 1.8125l0 5.390625l-1.671875 0zm20.891296 -1.453125q1.265625 0.859375 2.3125 1.265625l-0.53125 1.25q-1.453125 -0.53125 -2.921875 -1.671875q-1.5 0.84375 -3.328125 0.84375q-1.84375 0 -3.359375 -0.890625q-1.5 -0.890625 -2.3125 -2.5q-0.8125 -1.625 -0.8125 -3.640625q0 -2.015625 0.8125 -3.65625q0.828125 -1.65625 2.328125 -2.515625q1.515625 -0.875 3.375 -0.875q1.890625 0 3.390625 0.90625q1.515625 0.890625 2.3125 2.5q0.796875 1.609375 0.796875 3.625q0 1.6875 -0.515625 3.03125q-0.515625 1.328125 -1.546875 2.328125zm-3.953125 -2.296875q1.5625 0.421875 2.5625 1.296875q1.59375 -1.453125 1.59375 -4.359375q0 -1.65625 -0.5625 -2.875q-0.5625 -1.234375 -1.640625 -1.921875q-1.078125 -0.6875 -2.421875 -0.6875q-2.015625 0 -3.34375 1.390625q-1.328125 1.375 -1.328125 4.109375q0 2.65625 1.3125 4.078125q1.3125 1.40625 3.359375 1.40625q0.953125 0 1.8125 -0.359375q-0.84375 -0.546875 -1.78125 -0.78125l0.4375 -1.296875zm8.0896 3.75l0 -13.59375l1.796875 0l0 11.984375l6.703125 0l0 1.609375l-8.5 0z" fill-rule="nonzero"></path><path fill="#000000" d="m603.55414 237.8757l1.6875 -0.140625q0.125 1.015625 0.5625 1.671875q0.4375 0.65625 1.359375 1.0625q0.9375 0.40625 2.09375 0.40625q1.03125 0 1.8125 -0.3125q0.796875 -0.3125 1.1875 -0.84375q0.390625 -0.53125 0.390625 -1.15625q0 -0.640625 -0.375 -1.109375q-0.375 -0.484375 -1.234375 -0.8125q-0.546875 -0.21875 -2.421875 -0.65625q-1.875 -0.453125 -2.625 -0.859375q-0.96875 -0.515625 -1.453125 -1.265625q-0.46875 -0.75 -0.46875 -1.6875q0 -1.03125 0.578125 -1.921875q0.59375 -0.90625 1.703125 -1.359375q1.125 -0.46875 2.5 -0.46875q1.515625 0 2.671875 0.484375q1.15625 0.484375 1.765625 1.4375q0.625 0.9375 0.671875 2.140625l-1.71875 0.125q-0.140625 -1.28125 -0.953125 -1.9375q-0.796875 -0.671875 -2.359375 -0.671875q-1.625 0 -2.375 0.609375q-0.75 0.59375 -0.75 1.4375q0 0.734375 0.53125 1.203125q0.515625 0.46875 2.703125 0.96875q2.203125 0.5 3.015625 0.875q1.1875 0.546875 1.75 1.390625q0.578125 0.828125 0.578125 1.921875q0 1.09375 -0.625 2.0625q-0.625 0.953125 -1.796875 1.484375q-1.15625 0.53125 -2.609375 0.53125q-1.84375 0 -3.09375 -0.53125q-1.25 -0.546875 -1.96875 -1.625q-0.703125 -1.078125 -0.734375 -2.453125zm19.584229 1.203125l1.71875 0.21875q-0.40625 1.5 -1.515625 2.34375q-1.09375 0.828125 -2.8125 0.828125q-2.15625 0 -3.421875 -1.328125q-1.265625 -1.328125 -1.265625 -3.734375q0 -2.484375 1.265625 -3.859375q1.28125 -1.375 3.328125 -1.375q1.984375 0 3.234375 1.34375q1.25 1.34375 1.25 3.796875q0 0.140625 -0.015625 0.4375l-7.34375 0q0.09375 1.625 0.921875 2.484375q0.828125 0.859375 2.0625 0.859375q0.90625 0 1.546875 -0.46875q0.65625 -0.484375 1.046875 -1.546875zm-5.484375 -2.703125l5.5 0q-0.109375 -1.234375 -0.625 -1.859375q-0.796875 -0.96875 -2.078125 -0.96875q-1.140625 0 -1.9375 0.78125q-0.78125 0.765625 -0.859375 2.046875zm9.094482 5.875l0 -9.859375l1.5 0l0 1.5q0.578125 -1.046875 1.0625 -1.375q0.484375 -0.34375 1.078125 -0.34375q0.84375 0 1.71875 0.546875l-0.578125 1.546875q-0.609375 -0.359375 -1.234375 -0.359375q-0.546875 0 -0.984375 0.328125q-0.421875 0.328125 -0.609375 0.90625q-0.28125 0.890625 -0.28125 1.953125l0 5.15625l-1.671875 0zm8.9626465 0l-3.75 -9.859375l1.765625 0l2.125 5.90625q0.34375 0.953125 0.625 1.984375q0.21875 -0.78125 0.625 -1.875l2.1875 -6.015625l1.71875 0l-3.734375 9.859375l-1.5625 0zm13.34375 -3.171875l1.71875 0.21875q-0.40625 1.5 -1.515625 2.34375q-1.09375 0.828125 -2.8125 0.828125q-2.15625 0 -3.421875 -1.328125q-1.265625 -1.328125 -1.265625 -3.734375q0 -2.484375 1.265625 -3.859375q1.28125 -1.375 3.328125 -1.375q1.984375 0 3.234375 1.34375q1.25 1.34375 1.25 3.796875q0 0.140625 -0.015625 0.4375l-7.34375 0q0.09375 1.625 0.921875 2.484375q0.828125 0.859375 2.0625 0.859375q0.90625 0 1.546875 -0.46875q0.65625 -0.484375 1.046875 -1.546875zm-5.484375 -2.703125l5.5 0q-0.109375 -1.234375 -0.625 -1.859375q-0.796875 -0.96875 -2.078125 -0.96875q-1.140625 0 -1.9375 0.78125q-0.78125 0.765625 -0.859375 2.046875zm9.094482 5.875l0 -9.859375l1.5 0l0 1.5q0.578125 -1.046875 1.0625 -1.375q0.484375 -0.34375 1.078125 -0.34375q0.84375 0 1.71875 0.546875l-0.578125 1.546875q-0.609375 -0.359375 -1.234375 -0.359375q-0.546875 0 -0.984375 0.328125q-0.421875 0.328125 -0.609375 0.90625q-0.28125 0.890625 -0.28125 1.953125l0 5.15625l-1.671875 0z" fill-rule="nonzero"></path><path fill="#000000" fill-opacity="0.0" d="m265.6929 197.86089l323.2441 0" fill-rule="nonzero"></path><path stroke="#595959" stroke-width="1.0" stroke-linejoin="round" stroke-linecap="butt" d="m265.6929 197.86089l317.2441 0" fill-rule="evenodd"></path><path fill="#595959" stroke="#595959" stroke-width="1.0" stroke-linecap="butt" d="m582.937 199.51262l4.538086 -1.6517334l-4.538086 -1.6517181z" fill-rule="evenodd"></path><path fill="#000000" fill-opacity="0.0" d="m588.937 240.3307l-323.2441 0" fill-rule="nonzero"></path><path stroke="#595959" stroke-width="1.0" stroke-linejoin="round" stroke-linecap="butt" d="m588.937 240.3307l-317.2441 0" fill-rule="evenodd"></path><path fill="#595959" stroke="#595959" stroke-width="1.0" stroke-linecap="butt" d="m271.6929 238.67897l-4.538086 1.6517334l4.538086 1.6517334z" fill-rule="evenodd"></path><path fill="#000000" fill-opacity="0.0" d="m326.01706 138.82152l202.58267 0l0 44.7874l-202.58267 0z" fill-rule="nonzero"></path><path fill="#000000" d="m345.26706 165.50714q0 0.0625 -0.046875 0.125q-0.03125 0.046875 -0.125 0.09375q-0.09375 0.03125 -0.25 0.046875q-0.15625 0.03125 -0.375 0.03125q-0.234375 0 -0.390625 -0.03125q-0.140625 -0.015625 -0.234375 -0.046875q-0.09375 -0.046875 -0.140625 -0.09375q-0.03125 -0.0625 -0.03125 -0.125l0 -5.328125l-5.46875 0l0 5.328125q0 0.0625 -0.03125 0.125q-0.03125 0.046875 -0.125 0.09375q-0.09375 0.03125 -0.25 0.046875q-0.15625 0.03125 -0.390625 0.03125q-0.21875 0 -0.375 -0.03125q-0.15625 -0.015625 -0.25 -0.046875q-0.09375 -0.046875 -0.140625 -0.09375q-0.03125 -0.0625 -0.03125 -0.125l0 -11.53125q0 -0.078125 0.03125 -0.125q0.046875 -0.0625 0.140625 -0.09375q0.09375 -0.03125 0.25 -0.046875q0.15625 -0.03125 0.375 -0.03125q0.234375 0 0.390625 0.03125q0.15625 0.015625 0.25 0.046875q0.09375 0.03125 0.125 0.09375q0.03125 0.046875 0.03125 0.125l0 4.8125l5.46875 0l0 -4.8125q0 -0.078125 0.03125 -0.125q0.046875 -0.0625 0.140625 -0.09375q0.09375 -0.03125 0.234375 -0.046875q0.15625 -0.03125 0.390625 -0.03125q0.21875 0 0.375 0.03125q0.15625 0.015625 0.25 0.046875q0.09375 0.03125 0.125 0.09375q0.046875 0.046875 0.046875 0.125l0 11.53125zm10.498718 -11.078125q0 0.171875 -0.03125 0.3125q-0.015625 0.125 -0.0625 0.203125q-0.03125 0.078125 -0.09375 0.109375q-0.0625 0.03125 -0.140625 0.03125l-3.375 0l0 10.421875q0 0.0625 -0.03125 0.125q-0.03125 0.046875 -0.125 0.09375q-0.09375 0.03125 -0.25 0.046875q-0.15625 0.03125 -0.390625 0.03125q-0.21875 0 -0.375 -0.03125q-0.15625 -0.015625 -0.25 -0.046875q-0.09375 -0.046875 -0.140625 -0.09375q-0.03125 -0.0625 -0.03125 -0.125l0 -10.421875l-3.375 0q-0.078125 0 -0.140625 -0.03125q-0.046875 -0.03125 -0.09375 -0.109375q-0.03125 -0.078125 -0.0625 -0.203125q-0.015625 -0.140625 -0.015625 -0.3125q0 -0.1875 0.015625 -0.3125q0.03125 -0.140625 0.0625 -0.21875q0.046875 -0.09375 0.09375 -0.125q0.0625 -0.03125 0.140625 -0.03125l8.34375 0q0.078125 0 0.140625 0.03125q0.0625 0.03125 0.09375 0.125q0.046875 0.078125 0.0625 0.21875q0.03125 0.125 0.03125 0.3125zm9.091278 0q0 0.171875 -0.03125 0.3125q-0.015625 0.125 -0.0625 0.203125q-0.03125 0.078125 -0.09375 0.109375q-0.0625 0.03125 -0.140625 0.03125l-3.375 0l0 10.421875q0 0.0625 -0.03125 0.125q-0.03125 0.046875 -0.125 0.09375q-0.09375 0.03125 -0.25 0.046875q-0.15625 0.03125 -0.390625 0.03125q-0.21875 0 -0.375 -0.03125q-0.15625 -0.015625 -0.25 -0.046875q-0.09375 -0.046875 -0.140625 -0.09375q-0.03125 -0.0625 -0.03125 -0.125l0 -10.421875l-3.375 0q-0.078125 0 -0.140625 -0.03125q-0.046875 -0.03125 -0.09375 -0.109375q-0.03125 -0.078125 -0.0625 -0.203125q-0.015625 -0.140625 -0.015625 -0.3125q0 -0.1875 0.015625 -0.3125q0.03125 -0.140625 0.0625 -0.21875q0.046875 -0.09375 0.09375 -0.125q0.0625 -0.03125 0.140625 -0.03125l8.34375 0q0.078125 0 0.140625 0.03125q0.0625 0.03125 0.09375 0.125q0.046875 0.078125 0.0625 0.21875q0.03125 0.125 0.03125 0.3125zm8.935028 2.828125q0 0.890625 -0.296875 1.625q-0.296875 0.71875 -0.84375 1.234375q-0.546875 0.5 -1.359375 0.78125q-0.796875 0.28125 -1.90625 0.28125l-1.375 0l0 4.328125q0 0.0625 -0.046875 0.125q-0.03125 0.046875 -0.125 0.09375q-0.078125 0.03125 -0.234375 0.046875q-0.15625 0.03125 -0.390625 0.03125q-0.234375 0 -0.390625 -0.03125q-0.140625 -0.015625 -0.234375 -0.046875q-0.09375 -0.046875 -0.140625 -0.09375q-0.03125 -0.0625 -0.03125 -0.125l0 -11.078125q0 -0.375 0.1875 -0.53125q0.203125 -0.15625 0.453125 -0.15625l2.5625 0q0.390625 0 0.75 0.03125q0.359375 0.03125 0.84375 0.140625q0.484375 0.09375 0.984375 0.390625q0.515625 0.296875 0.859375 0.734375q0.359375 0.421875 0.546875 0.984375q0.1875 0.546875 0.1875 1.234375zm-1.671875 0.125q0 -0.734375 -0.28125 -1.21875q-0.265625 -0.5 -0.671875 -0.734375q-0.40625 -0.25 -0.84375 -0.3125q-0.421875 -0.0625 -0.828125 -0.0625l-1.484375 0l0 4.8125l1.4375 0q0.734375 0 1.203125 -0.1875q0.484375 -0.1875 0.796875 -0.515625q0.328125 -0.328125 0.5 -0.78125q0.171875 -0.46875 0.171875 -1.0zm15.527435 -0.125q0 0.890625 -0.296875 1.625q-0.296875 0.71875 -0.84375 1.234375q-0.546875 0.5 -1.359375 0.78125q-0.796875 0.28125 -1.90625 0.28125l-1.375 0l0 4.328125q0 0.0625 -0.046875 0.125q-0.03125 0.046875 -0.125 0.09375q-0.078125 0.03125 -0.234375 0.046875q-0.15625 0.03125 -0.390625 0.03125q-0.234375 0 -0.390625 -0.03125q-0.140625 -0.015625 -0.234375 -0.046875q-0.09375 -0.046875 -0.140625 -0.09375q-0.03125 -0.0625 -0.03125 -0.125l0 -11.078125q0 -0.375 0.1875 -0.53125q0.203125 -0.15625 0.453125 -0.15625l2.5625 0q0.390625 0 0.75 0.03125q0.359375 0.03125 0.84375 0.140625q0.484375 0.09375 0.984375 0.390625q0.515625 0.296875 0.859375 0.734375q0.359375 0.421875 0.546875 0.984375q0.1875 0.546875 0.1875 1.234375zm-1.671875 0.125q0 -0.734375 -0.28125 -1.21875q-0.265625 -0.5 -0.671875 -0.734375q-0.40625 -0.25 -0.84375 -0.3125q-0.421875 -0.0625 -0.828125 -0.0625l-1.484375 0l0 4.8125l1.4375 0q0.734375 0 1.203125 -0.1875q0.484375 -0.1875 0.796875 -0.515625q0.328125 -0.328125 0.5 -0.78125q0.171875 -0.46875 0.171875 -1.0zm13.997223 2.21875q0 1.453125 -0.34375 2.625q-0.34375 1.171875 -1.03125 2.0q-0.671875 0.8125 -1.703125 1.25q-1.03125 0.4375 -2.40625 0.4375q-1.359375 0 -2.34375 -0.390625q-0.984375 -0.40625 -1.640625 -1.171875q-0.640625 -0.78125 -0.953125 -1.921875q-0.3125 -1.140625 -0.3125 -2.625q0 -1.421875 0.34375 -2.578125q0.34375 -1.15625 1.03125 -1.96875q0.6875 -0.8125 1.703125 -1.25q1.03125 -0.453125 2.40625 -0.453125q1.328125 0 2.3125 0.40625q0.984375 0.390625 1.640625 1.15625q0.65625 0.765625 0.96875 1.90625q0.328125 1.125 0.328125 2.578125zm-1.6875 0.109375q0 -1.015625 -0.1875 -1.890625q-0.171875 -0.875 -0.59375 -1.515625q-0.421875 -0.65625 -1.125 -1.015625q-0.703125 -0.359375 -1.75 -0.359375q-1.03125 0 -1.734375 0.390625q-0.703125 0.390625 -1.15625 1.046875q-0.4375 0.640625 -0.625 1.515625q-0.1875 0.859375 -0.1875 1.8125q0 1.0625 0.171875 1.953125q0.171875 0.890625 0.59375 1.53125q0.421875 0.640625 1.125 1.0q0.703125 0.359375 1.75 0.359375q1.046875 0 1.765625 -0.390625q0.71875 -0.390625 1.15625 -1.046875q0.4375 -0.671875 0.609375 -1.546875q0.1875 -0.875 0.1875 -1.84375zm10.430603 2.65625q0 0.84375 -0.3125 1.515625q-0.3125 0.65625 -0.875 1.125q-0.546875 0.453125 -1.296875 0.6875q-0.734375 0.21875 -1.59375 0.21875q-0.609375 0 -1.125 -0.109375q-0.515625 -0.09375 -0.921875 -0.234375q-0.40625 -0.15625 -0.6875 -0.3125q-0.265625 -0.15625 -0.375 -0.265625q-0.09375 -0.109375 -0.15625 -0.28125q-0.046875 -0.171875 -0.046875 -0.46875q0 -0.203125 0.015625 -0.328125q0.03125 -0.140625 0.0625 -0.21875q0.03125 -0.09375 0.078125 -0.125q0.0625 -0.03125 0.140625 -0.03125q0.125 0 0.359375 0.15625q0.25 0.15625 0.609375 0.34375q0.375 0.1875 0.890625 0.359375q0.53125 0.15625 1.21875 0.15625q0.53125 0 0.953125 -0.140625q0.4375 -0.140625 0.75 -0.390625q0.3125 -0.25 0.46875 -0.625q0.171875 -0.375 0.171875 -0.84375q0 -0.515625 -0.234375 -0.875q-0.234375 -0.359375 -0.609375 -0.625q-0.375 -0.28125 -0.875 -0.5q-0.484375 -0.234375 -1.0 -0.46875q-0.5 -0.25 -0.984375 -0.53125q-0.484375 -0.28125 -0.875 -0.671875q-0.375 -0.390625 -0.609375 -0.90625q-0.234375 -0.53125 -0.234375 -1.265625q0 -0.75 0.265625 -1.34375q0.28125 -0.59375 0.765625 -0.984375q0.5 -0.40625 1.171875 -0.609375q0.671875 -0.21875 1.453125 -0.21875q0.390625 0 0.796875 0.078125q0.40625 0.0625 0.75 0.1875q0.359375 0.109375 0.640625 0.265625q0.28125 0.140625 0.359375 0.234375q0.09375 0.078125 0.125 0.125q0.03125 0.046875 0.046875 0.125q0.015625 0.078125 0.015625 0.203125q0.015625 0.109375 0.015625 0.28125q0 0.171875 -0.015625 0.296875q0 0.125 -0.03125 0.21875q-0.03125 0.09375 -0.078125 0.140625q-0.046875 0.03125 -0.125 0.03125q-0.09375 0 -0.3125 -0.125q-0.21875 -0.140625 -0.53125 -0.296875q-0.3125 -0.15625 -0.75 -0.296875q-0.4375 -0.140625 -0.96875 -0.140625q-0.5 0 -0.875 0.140625q-0.375 0.140625 -0.609375 0.359375q-0.234375 0.21875 -0.359375 0.53125q-0.125 0.296875 -0.125 0.640625q0 0.5 0.234375 0.875q0.234375 0.359375 0.609375 0.640625q0.390625 0.265625 0.875 0.5q0.5 0.234375 1.0 0.46875q0.515625 0.234375 1.0 0.515625q0.5 0.28125 0.890625 0.671875q0.390625 0.390625 0.625 0.921875q0.234375 0.515625 0.234375 1.21875zm9.6501465 -7.9375q0 0.171875 -0.03125 0.3125q-0.015625 0.125 -0.0625 0.203125q-0.03125 0.078125 -0.09375 0.109375q-0.0625 0.03125 -0.140625 0.03125l-3.375 0l0 10.421875q0 0.0625 -0.03125 0.125q-0.03125 0.046875 -0.125 0.09375q-0.09375 0.03125 -0.25 0.046875q-0.15625 0.03125 -0.390625 0.03125q-0.21875 0 -0.375 -0.03125q-0.15625 -0.015625 -0.25 -0.046875q-0.09375 -0.046875 -0.140625 -0.09375q-0.03125 -0.0625 -0.03125 -0.125l0 -10.421875l-3.375 0q-0.078125 0 -0.140625 -0.03125q-0.046875 -0.03125 -0.09375 -0.109375q-0.03125 -0.078125 -0.0625 -0.203125q-0.015625 -0.140625 -0.015625 -0.3125q0 -0.1875 0.015625 -0.3125q0.03125 -0.140625 0.0625 -0.21875q0.046875 -0.09375 0.09375 -0.125q0.0625 -0.03125 0.140625 -0.03125l8.34375 0q0.078125 0 0.140625 0.03125q0.0625 0.03125 0.09375 0.125q0.046875 0.078125 0.0625 0.21875q0.03125 0.125 0.03125 0.3125zm8.6683655 8.28125q0 0.71875 -0.125 1.3125q-0.125 0.59375 -0.453125 1.015625q-0.3125 0.421875 -0.828125 0.65625q-0.515625 0.21875 -1.265625 0.21875q-0.265625 0 -0.515625 -0.046875q-0.25 -0.046875 -0.46875 -0.125q-0.21875 -0.0625 -0.375 -0.140625q-0.15625 -0.078125 -0.21875 -0.125q-0.046875 -0.0625 -0.078125 -0.109375q-0.03125 -0.0625 -0.0625 -0.140625q-0.015625 -0.078125 -0.03125 -0.1875q0 -0.125 0 -0.296875q0 -0.203125 0.015625 -0.328125q0.015625 -0.140625 0.046875 -0.21875q0.046875 -0.078125 0.09375 -0.109375q0.046875 -0.03125 0.125 -0.03125q0.078125 0 0.1875 0.078125q0.125 0.0625 0.28125 0.15625q0.15625 0.078125 0.375 0.140625q0.21875 0.0625 0.5 0.0625q0.3125 0 0.53125 -0.078125q0.234375 -0.078125 0.375 -0.28125q0.15625 -0.21875 0.21875 -0.59375q0.078125 -0.375 0.078125 -0.984375l0 -8.578125q0 -0.078125 0.03125 -0.125q0.046875 -0.0625 0.140625 -0.09375q0.09375 -0.046875 0.234375 -0.0625q0.15625 -0.015625 0.390625 -0.015625q0.234375 0 0.390625 0.015625q0.15625 0.015625 0.234375 0.0625q0.09375 0.03125 0.125 0.09375q0.046875 0.046875 0.046875 0.125l0 8.734375zm9.510986 -0.34375q0 0.84375 -0.3125 1.515625q-0.3125 0.65625 -0.875 1.125q-0.546875 0.453125 -1.296875 0.6875q-0.734375 0.21875 -1.59375 0.21875q-0.609375 0 -1.125 -0.109375q-0.515625 -0.09375 -0.921875 -0.234375q-0.40625 -0.15625 -0.6875 -0.3125q-0.265625 -0.15625 -0.375 -0.265625q-0.09375 -0.109375 -0.15625 -0.28125q-0.046875 -0.171875 -0.046875 -0.46875q0 -0.203125 0.015625 -0.328125q0.03125 -0.140625 0.0625 -0.21875q0.03125 -0.09375 0.078125 -0.125q0.0625 -0.03125 0.140625 -0.03125q0.125 0 0.359375 0.15625q0.25 0.15625 0.609375 0.34375q0.375 0.1875 0.890625 0.359375q0.53125 0.15625 1.21875 0.15625q0.53125 0 0.953125 -0.140625q0.4375 -0.140625 0.75 -0.390625q0.3125 -0.25 0.46875 -0.625q0.171875 -0.375 0.171875 -0.84375q0 -0.515625 -0.234375 -0.875q-0.234375 -0.359375 -0.609375 -0.625q-0.375 -0.28125 -0.875 -0.5q-0.484375 -0.234375 -1.0 -0.46875q-0.5 -0.25 -0.984375 -0.53125q-0.484375 -0.28125 -0.875 -0.671875q-0.375 -0.390625 -0.609375 -0.90625q-0.234375 -0.53125 -0.234375 -1.265625q0 -0.75 0.265625 -1.34375q0.28125 -0.59375 0.765625 -0.984375q0.5 -0.40625 1.171875 -0.609375q0.671875 -0.21875 1.453125 -0.21875q0.390625 0 0.796875 0.078125q0.40625 0.0625 0.75 0.1875q0.359375 0.109375 0.640625 0.265625q0.28125 0.140625 0.359375 0.234375q0.09375 0.078125 0.125 0.125q0.03125 0.046875 0.046875 0.125q0.015625 0.078125 0.015625 0.203125q0.015625 0.109375 0.015625 0.28125q0 0.171875 -0.015625 0.296875q0 0.125 -0.03125 0.21875q-0.03125 0.09375 -0.078125 0.140625q-0.046875 0.03125 -0.125 0.03125q-0.09375 0 -0.3125 -0.125q-0.21875 -0.140625 -0.53125 -0.296875q-0.3125 -0.15625 -0.75 -0.296875q-0.4375 -0.140625 -0.96875 -0.140625q-0.5 0 -0.875 0.140625q-0.375 0.140625 -0.609375 0.359375q-0.234375 0.21875 -0.359375 0.53125q-0.125 0.296875 -0.125 0.640625q0 0.5 0.234375 0.875q0.234375 0.359375 0.609375 0.640625q0.390625 0.265625 0.875 0.5q0.5 0.234375 1.0 0.46875q0.515625 0.234375 1.0 0.515625q0.5 0.28125 0.890625 0.671875q0.390625 0.390625 0.625 0.921875q0.234375 0.515625 0.234375 1.21875zm12.181427 -2.765625q0 1.453125 -0.34375 2.625q-0.34375 1.171875 -1.03125 2.0q-0.671875 0.8125 -1.703125 1.25q-1.03125 0.4375 -2.40625 0.4375q-1.359375 0 -2.34375 -0.390625q-0.984375 -0.40625 -1.640625 -1.171875q-0.640625 -0.78125 -0.953125 -1.921875q-0.3125 -1.140625 -0.3125 -2.625q0 -1.421875 0.34375 -2.578125q0.34375 -1.15625 1.03125 -1.96875q0.6875 -0.8125 1.703125 -1.25q1.03125 -0.453125 2.40625 -0.453125q1.328125 0 2.3125 0.40625q0.984375 0.390625 1.640625 1.15625q0.65625 0.765625 0.96875 1.90625q0.328125 1.125 0.328125 2.578125zm-1.6875 0.109375q0 -1.015625 -0.1875 -1.890625q-0.171875 -0.875 -0.59375 -1.515625q-0.421875 -0.65625 -1.125 -1.015625q-0.703125 -0.359375 -1.75 -0.359375q-1.03125 0 -1.734375 0.390625q-0.703125 0.390625 -1.15625 1.046875q-0.4375 0.640625 -0.625 1.515625q-0.1875 0.859375 -0.1875 1.8125q0 1.0625 0.171875 1.953125q0.171875 0.890625 0.59375 1.53125q0.421875 0.640625 1.125 1.0q0.703125 0.359375 1.75 0.359375q1.046875 0 1.765625 -0.390625q0.71875 -0.390625 1.15625 -1.046875q0.4375 -0.671875 0.609375 -1.546875q0.1875 -0.875 0.1875 -1.84375zm13.055603 5.375q0 0.1875 -0.0625 0.3125q-0.0625 0.125 -0.15625 0.21875q-0.09375 0.078125 -0.21875 0.125q-0.125 0.03125 -0.25 0.03125l-0.5 0q-0.25 0 -0.4375 -0.046875q-0.171875 -0.0625 -0.34375 -0.1875q-0.15625 -0.140625 -0.3125 -0.375q-0.15625 -0.234375 -0.359375 -0.59375l-3.78125 -6.828125q-0.296875 -0.53125 -0.609375 -1.109375q-0.296875 -0.578125 -0.546875 -1.125l-0.015625 0q0.015625 0.671875 0.015625 1.375q0.015625 0.6875 0.015625 1.375l0 7.25q0 0.0625 -0.046875 0.125q-0.03125 0.046875 -0.125 0.09375q-0.078125 0.03125 -0.234375 0.046875q-0.140625 0.03125 -0.359375 0.03125q-0.21875 0 -0.359375 -0.03125q-0.140625 -0.015625 -0.234375 -0.046875q-0.078125 -0.046875 -0.125 -0.09375q-0.03125 -0.0625 -0.03125 -0.125l0 -11.078125q0 -0.375 0.203125 -0.53125q0.203125 -0.15625 0.453125 -0.15625l0.75 0q0.28125 0 0.453125 0.046875q0.1875 0.046875 0.328125 0.15625q0.140625 0.09375 0.265625 0.296875q0.140625 0.1875 0.296875 0.46875l2.921875 5.265625q0.265625 0.484375 0.515625 0.953125q0.25 0.453125 0.484375 0.90625q0.234375 0.4375 0.453125 0.875q0.234375 0.421875 0.453125 0.859375l0.015625 0q-0.015625 -0.734375 -0.03125 -1.515625q0 -0.796875 0 -1.53125l0 -6.515625q0 -0.0625 0.03125 -0.109375q0.046875 -0.0625 0.125 -0.109375q0.09375 -0.046875 0.234375 -0.0625q0.140625 -0.015625 0.375 -0.015625q0.203125 0 0.34375 0.015625q0.15625 0.015625 0.234375 0.0625q0.09375 0.046875 0.125 0.109375q0.046875 0.046875 0.046875 0.109375l0 11.078125zm13.635437 -2.71875q0 0.84375 -0.3125 1.515625q-0.3125 0.65625 -0.875 1.125q-0.546875 0.453125 -1.296875 0.6875q-0.734375 0.21875 -1.59375 0.21875q-0.609375 0 -1.125 -0.109375q-0.515625 -0.09375 -0.921875 -0.234375q-0.40625 -0.15625 -0.6875 -0.3125q-0.265625 -0.15625 -0.375 -0.265625q-0.09375 -0.109375 -0.15625 -0.28125q-0.046875 -0.171875 -0.046875 -0.46875q0 -0.203125 0.015625 -0.328125q0.03125 -0.140625 0.0625 -0.21875q0.03125 -0.09375 0.078125 -0.125q0.0625 -0.03125 0.140625 -0.03125q0.125 0 0.359375 0.15625q0.25 0.15625 0.609375 0.34375q0.375 0.1875 0.890625 0.359375q0.53125 0.15625 1.21875 0.15625q0.53125 0 0.953125 -0.140625q0.4375 -0.140625 0.75 -0.390625q0.3125 -0.25 0.46875 -0.625q0.171875 -0.375 0.171875 -0.84375q0 -0.515625 -0.234375 -0.875q-0.234375 -0.359375 -0.609375 -0.625q-0.375 -0.28125 -0.875 -0.5q-0.484375 -0.234375 -1.0 -0.46875q-0.5 -0.25 -0.984375 -0.53125q-0.484375 -0.28125 -0.875 -0.671875q-0.375 -0.390625 -0.609375 -0.90625q-0.234375 -0.53125 -0.234375 -1.265625q0 -0.75 0.265625 -1.34375q0.28125 -0.59375 0.765625 -0.984375q0.5 -0.40625 1.171875 -0.609375q0.671875 -0.21875 1.453125 -0.21875q0.390625 0 0.796875 0.078125q0.40625 0.0625 0.75 0.1875q0.359375 0.109375 0.640625 0.265625q0.28125 0.140625 0.359375 0.234375q0.09375 0.078125 0.125 0.125q0.03125 0.046875 0.046875 0.125q0.015625 0.078125 0.015625 0.203125q0.015625 0.109375 0.015625 0.28125q0 0.171875 -0.015625 0.296875q0 0.125 -0.03125 0.21875q-0.03125 0.09375 -0.078125 0.140625q-0.046875 0.03125 -0.125 0.03125q-0.09375 0 -0.3125 -0.125q-0.21875 -0.140625 -0.53125 -0.296875q-0.3125 -0.15625 -0.75 -0.296875q-0.4375 -0.140625 -0.96875 -0.140625q-0.5 0 -0.875 0.140625q-0.375 0.140625 -0.609375 0.359375q-0.234375 0.21875 -0.359375 0.53125q-0.125 0.296875 -0.125 0.640625q0 0.5 0.234375 0.875q0.234375 0.359375 0.609375 0.640625q0.390625 0.265625 0.875 0.5q0.5 0.234375 1.0 0.46875q0.515625 0.234375 1.0 0.515625q0.5 0.28125 0.890625 0.671875q0.390625 0.390625 0.625 0.921875q0.234375 0.515625 0.234375 1.21875zm6.290802 2.53125q0 0.265625 -0.046875 0.421875q-0.03125 0.15625 -0.109375 0.234375q-0.078125 0.078125 -0.234375 0.140625q-0.140625 0.0625 -0.328125 0.109375q-0.1875 0.046875 -0.40625 0.0625q-0.203125 0.03125 -0.421875 0.03125q-0.640625 0 -1.109375 -0.171875q-0.46875 -0.171875 -0.765625 -0.515625q-0.296875 -0.34375 -0.4375 -0.875q-0.125 -0.546875 -0.125 -1.265625l0 -4.875l-1.171875 0q-0.140625 0 -0.21875 -0.140625q-0.078125 -0.15625 -0.078125 -0.5q0 -0.171875 0.015625 -0.28125q0.03125 -0.125 0.0625 -0.203125q0.03125 -0.09375 0.09375 -0.125q0.0625 -0.03125 0.140625 -0.03125l1.15625 0l0 -1.984375q0 -0.0625 0.03125 -0.109375q0.03125 -0.0625 0.109375 -0.09375q0.09375 -0.046875 0.234375 -0.0625q0.15625 -0.03125 0.390625 -0.03125q0.234375 0 0.375 0.03125q0.15625 0.015625 0.234375 0.0625q0.078125 0.03125 0.109375 0.09375q0.046875 0.046875 0.046875 0.109375l0 1.984375l2.140625 0q0.078125 0 0.125 0.03125q0.0625 0.03125 0.09375 0.125q0.046875 0.078125 0.0625 0.203125q0.03125 0.109375 0.03125 0.28125q0 0.34375 -0.09375 0.5q-0.078125 0.140625 -0.21875 0.140625l-2.140625 0l0 4.65625q0 0.859375 0.25 1.296875q0.265625 0.4375 0.921875 0.4375q0.203125 0 0.375 -0.03125q0.171875 -0.046875 0.296875 -0.09375q0.125 -0.046875 0.21875 -0.078125q0.09375 -0.046875 0.171875 -0.046875q0.046875 0 0.078125 0.03125q0.046875 0.015625 0.0625 0.078125q0.03125 0.0625 0.046875 0.171875q0.03125 0.109375 0.03125 0.28125zm6.780365 -7.1875q0 0.203125 -0.015625 0.34375q0 0.140625 -0.03125 0.21875q-0.03125 0.078125 -0.078125 0.125q-0.03125 0.03125 -0.109375 0.03125q-0.0625 0 -0.171875 -0.03125q-0.109375 -0.046875 -0.25 -0.09375q-0.125 -0.046875 -0.296875 -0.078125q-0.171875 -0.03125 -0.359375 -0.03125q-0.234375 0 -0.453125 0.09375q-0.21875 0.09375 -0.46875 0.3125q-0.25 0.203125 -0.515625 0.5625q-0.265625 0.34375 -0.59375 0.859375l0 5.484375q0 0.078125 -0.046875 0.125q-0.03125 0.046875 -0.125 0.09375q-0.078125 0.03125 -0.234375 0.046875q-0.140625 0.03125 -0.359375 0.03125q-0.234375 0 -0.390625 -0.03125q-0.140625 -0.015625 -0.234375 -0.046875q-0.078125 -0.046875 -0.109375 -0.09375q-0.03125 -0.046875 -0.03125 -0.125l0 -8.34375q0 -0.078125 0.015625 -0.125q0.03125 -0.0625 0.109375 -0.09375q0.09375 -0.046875 0.21875 -0.0625q0.140625 -0.015625 0.34375 -0.015625q0.203125 0 0.34375 0.015625q0.140625 0.015625 0.203125 0.0625q0.078125 0.03125 0.109375 0.09375q0.03125 0.046875 0.03125 0.125l0 1.21875q0.34375 -0.515625 0.640625 -0.828125q0.3125 -0.3125 0.578125 -0.484375q0.265625 -0.1875 0.53125 -0.25q0.265625 -0.078125 0.53125 -0.078125q0.125 0 0.28125 0.015625q0.15625 0.015625 0.3125 0.0625q0.171875 0.03125 0.296875 0.078125q0.140625 0.046875 0.1875 0.09375q0.0625 0.03125 0.078125 0.078125q0.03125 0.046875 0.046875 0.109375q0.015625 0.0625 0.015625 0.1875q0 0.125 0 0.34375zm3.160431 7.796875q0 0.078125 -0.046875 0.125q-0.03125 0.046875 -0.125 0.09375q-0.078125 0.03125 -0.234375 0.046875q-0.140625 0.03125 -0.359375 0.03125q-0.234375 0 -0.390625 -0.03125q-0.140625 -0.015625 -0.234375 -0.046875q-0.078125 -0.046875 -0.109375 -0.09375q-0.03125 -0.046875 -0.03125 -0.125l0 -8.34375q0 -0.0625 0.03125 -0.125q0.03125 -0.0625 0.109375 -0.09375q0.09375 -0.03125 0.234375 -0.046875q0.15625 -0.03125 0.390625 -0.03125q0.21875 0 0.359375 0.03125q0.15625 0.015625 0.234375 0.046875q0.09375 0.03125 0.125 0.09375q0.046875 0.0625 0.046875 0.125l0 8.34375zm0.171875 -11.171875q0 0.546875 -0.203125 0.75q-0.203125 0.1875 -0.75 0.1875q-0.53125 0 -0.734375 -0.1875q-0.203125 -0.203125 -0.203125 -0.734375q0 -0.53125 0.203125 -0.71875q0.203125 -0.203125 0.75 -0.203125q0.546875 0 0.734375 0.1875q0.203125 0.1875 0.203125 0.71875zm9.765839 11.171875q0 0.078125 -0.046875 0.125q-0.03125 0.046875 -0.109375 0.09375q-0.078125 0.03125 -0.234375 0.046875q-0.140625 0.03125 -0.375 0.03125q-0.234375 0 -0.390625 -0.03125q-0.140625 -0.015625 -0.21875 -0.046875q-0.078125 -0.046875 -0.125 -0.09375q-0.03125 -0.046875 -0.03125 -0.125l0 -4.890625q0 -0.703125 -0.109375 -1.140625q-0.109375 -0.4375 -0.328125 -0.75q-0.21875 -0.328125 -0.5625 -0.484375q-0.328125 -0.171875 -0.765625 -0.171875q-0.578125 0 -1.15625 0.40625q-0.578125 0.40625 -1.203125 1.203125l0 5.828125q0 0.078125 -0.046875 0.125q-0.03125 0.046875 -0.125 0.09375q-0.078125 0.03125 -0.234375 0.046875q-0.140625 0.03125 -0.359375 0.03125q-0.234375 0 -0.390625 -0.03125q-0.140625 -0.015625 -0.234375 -0.046875q-0.078125 -0.046875 -0.109375 -0.09375q-0.03125 -0.046875 -0.03125 -0.125l0 -8.34375q0 -0.078125 0.015625 -0.125q0.03125 -0.0625 0.109375 -0.09375q0.09375 -0.046875 0.21875 -0.0625q0.140625 -0.015625 0.34375 -0.015625q0.203125 0 0.34375 0.015625q0.140625 0.015625 0.203125 0.0625q0.078125 0.03125 0.109375 0.09375q0.03125 0.046875 0.03125 0.125l0 1.09375q0.703125 -0.78125 1.40625 -1.140625q0.703125 -0.375 1.421875 -0.375q0.828125 0 1.390625 0.28125q0.578125 0.28125 0.921875 0.765625q0.359375 0.46875 0.515625 1.109375q0.15625 0.625 0.15625 1.515625l0 5.09375zm9.583069 -7.96875q0 0.328125 -0.09375 0.46875q-0.078125 0.140625 -0.21875 0.140625l-1.1875 0q0.3125 0.34375 0.4375 0.75q0.140625 0.390625 0.140625 0.828125q0 0.734375 -0.234375 1.296875q-0.234375 0.546875 -0.671875 0.9375q-0.421875 0.375 -1.015625 0.578125q-0.59375 0.203125 -1.3125 0.203125q-0.515625 0 -0.984375 -0.125q-0.453125 -0.140625 -0.703125 -0.34375q-0.15625 0.171875 -0.265625 0.390625q-0.109375 0.203125 -0.109375 0.484375q0 0.328125 0.296875 0.546875q0.3125 0.203125 0.8125 0.21875l2.171875 0.09375q0.625 0.015625 1.140625 0.171875q0.515625 0.15625 0.890625 0.4375q0.390625 0.28125 0.59375 0.703125q0.21875 0.40625 0.21875 0.953125q0 0.578125 -0.234375 1.09375q-0.234375 0.515625 -0.734375 0.90625q-0.5 0.40625 -1.28125 0.625q-0.765625 0.234375 -1.8125 0.234375q-1.0 0 -1.71875 -0.171875q-0.703125 -0.171875 -1.15625 -0.46875q-0.453125 -0.296875 -0.671875 -0.71875q-0.203125 -0.40625 -0.203125 -0.890625q0 -0.3125 0.078125 -0.59375q0.078125 -0.28125 0.234375 -0.546875q0.15625 -0.265625 0.375 -0.5q0.234375 -0.234375 0.53125 -0.46875q-0.453125 -0.234375 -0.671875 -0.578125q-0.21875 -0.359375 -0.21875 -0.765625q0 -0.5625 0.21875 -1.0q0.234375 -0.453125 0.578125 -0.8125q-0.28125 -0.34375 -0.453125 -0.765625q-0.15625 -0.4375 -0.15625 -1.046875q0 -0.71875 0.234375 -1.28125q0.234375 -0.5625 0.65625 -0.953125q0.4375 -0.390625 1.03125 -0.59375q0.609375 -0.21875 1.3125 -0.21875q0.375 0 0.703125 0.046875q0.328125 0.046875 0.625 0.109375l2.515625 0q0.15625 0 0.234375 0.15625q0.078125 0.15625 0.078125 0.46875zm-2.390625 2.203125q0 -0.859375 -0.46875 -1.328125q-0.46875 -0.484375 -1.328125 -0.484375q-0.453125 0 -0.78125 0.15625q-0.328125 0.140625 -0.546875 0.40625q-0.21875 0.25 -0.328125 0.59375q-0.09375 0.34375 -0.09375 0.703125q0 0.828125 0.46875 1.3125q0.46875 0.46875 1.3125 0.46875q0.453125 0 0.78125 -0.140625q0.34375 -0.15625 0.5625 -0.40625q0.21875 -0.25 0.3125 -0.578125q0.109375 -0.34375 0.109375 -0.703125zm0.765625 6.609375q0 -0.53125 -0.4375 -0.828125q-0.4375 -0.296875 -1.1875 -0.3125l-2.15625 -0.078125q-0.296875 0.234375 -0.5 0.453125q-0.1875 0.203125 -0.296875 0.390625q-0.109375 0.1875 -0.15625 0.375q-0.03125 0.1875 -0.03125 0.390625q0 0.59375 0.609375 0.90625q0.609375 0.3125 1.703125 0.3125q0.703125 0 1.171875 -0.140625q0.46875 -0.125 0.75 -0.359375q0.28125 -0.21875 0.40625 -0.515625q0.125 -0.28125 0.125 -0.59375z" fill-rule="nonzero"></path><path fill="#000000" fill-opacity="0.0" d="m336.19684 256.76904l202.5827 0l0 44.787384l-202.5827 0z" fill-rule="nonzero"></path><path fill="#000000" d="m349.6812 280.65778q0 0.71875 -0.125 1.3125q-0.125 0.59375 -0.453125 1.015625q-0.3125 0.421875 -0.828125 0.65625q-0.515625 0.21875 -1.265625 0.21875q-0.265625 0 -0.515625 -0.046875q-0.25 -0.046875 -0.46875 -0.125q-0.21875 -0.0625 -0.375 -0.140625q-0.15625 -0.078125 -0.21875 -0.125q-0.046875 -0.0625 -0.078125 -0.109375q-0.03125 -0.0625 -0.0625 -0.140625q-0.015625 -0.078125 -0.03125 -0.1875q0 -0.125 0 -0.296875q0 -0.203125 0.015625 -0.328125q0.015625 -0.140625 0.046875 -0.21875q0.046875 -0.078125 0.09375 -0.109375q0.046875 -0.03125 0.125 -0.03125q0.078125 0 0.1875 0.078125q0.125 0.0625 0.28125 0.15625q0.15625 0.078125 0.375 0.140625q0.21875 0.0625 0.5 0.0625q0.3125 0 0.53125 -0.078125q0.234375 -0.078125 0.375 -0.28125q0.15625 -0.21875 0.21875 -0.59375q0.078125 -0.375 0.078125 -0.984375l0 -8.578125q0 -0.078125 0.03125 -0.125q0.046875 -0.0625 0.140625 -0.09375q0.09375 -0.046875 0.234375 -0.0625q0.15625 -0.015625 0.390625 -0.015625q0.234375 0 0.390625 0.015625q0.15625 0.015625 0.234375 0.0625q0.09375 0.03125 0.125 0.09375q0.046875 0.046875 0.046875 0.125l0 8.734375zm9.511017 -0.34375q0 0.84375 -0.3125 1.515625q-0.3125 0.65625 -0.875 1.125q-0.546875 0.453125 -1.296875 0.6875q-0.734375 0.21875 -1.59375 0.21875q-0.609375 0 -1.125 -0.109375q-0.515625 -0.09375 -0.921875 -0.234375q-0.40625 -0.15625 -0.6875 -0.3125q-0.265625 -0.15625 -0.375 -0.265625q-0.09375 -0.109375 -0.15625 -0.28125q-0.046875 -0.171875 -0.046875 -0.46875q0 -0.203125 0.015625 -0.328125q0.03125 -0.140625 0.0625 -0.21875q0.03125 -0.09375 0.078125 -0.125q0.0625 -0.03125 0.140625 -0.03125q0.125 0 0.359375 0.15625q0.25 0.15625 0.609375 0.34375q0.375 0.1875 0.890625 0.359375q0.53125 0.15625 1.21875 0.15625q0.53125 0 0.953125 -0.140625q0.4375 -0.140625 0.75 -0.390625q0.3125 -0.25 0.46875 -0.625q0.171875 -0.375 0.171875 -0.84375q0 -0.515625 -0.234375 -0.875q-0.234375 -0.359375 -0.609375 -0.625q-0.375 -0.28125 -0.875 -0.5q-0.484375 -0.234375 -1.0 -0.46875q-0.5 -0.25 -0.984375 -0.53125q-0.484375 -0.28125 -0.875 -0.671875q-0.375 -0.390625 -0.609375 -0.90625q-0.234375 -0.53125 -0.234375 -1.265625q0 -0.75 0.265625 -1.34375q0.28125 -0.59375 0.765625 -0.984375q0.5 -0.40625 1.171875 -0.609375q0.671875 -0.21875 1.453125 -0.21875q0.390625 0 0.796875 0.078125q0.40625 0.0625 0.75 0.1875q0.359375 0.109375 0.640625 0.265625q0.28125 0.140625 0.359375 0.234375q0.09375 0.078125 0.125 0.125q0.03125 0.046875 0.046875 0.125q0.015625 0.078125 0.015625 0.203125q0.015625 0.109375 0.015625 0.28125q0 0.171875 -0.015625 0.296875q0 0.125 -0.03125 0.21875q-0.03125 0.09375 -0.078125 0.140625q-0.046875 0.03125 -0.125 0.03125q-0.09375 0 -0.3125 -0.125q-0.21875 -0.140625 -0.53125 -0.296875q-0.3125 -0.15625 -0.75 -0.296875q-0.4375 -0.140625 -0.96875 -0.140625q-0.5 0 -0.875 0.140625q-0.375 0.140625 -0.609375 0.359375q-0.234375 0.21875 -0.359375 0.53125q-0.125 0.296875 -0.125 0.640625q0 0.5 0.234375 0.875q0.234375 0.359375 0.609375 0.640625q0.390625 0.265625 0.875 0.5q0.5 0.234375 1.0 0.46875q0.515625 0.234375 1.0 0.515625q0.5 0.28125 0.890625 0.671875q0.390625 0.390625 0.625 0.921875q0.234375 0.515625 0.234375 1.21875zm12.1813965 -2.765625q0 1.453125 -0.34375 2.625q-0.34375 1.171875 -1.03125 2.0q-0.671875 0.8125 -1.703125 1.25q-1.03125 0.4375 -2.40625 0.4375q-1.359375 0 -2.34375 -0.390625q-0.984375 -0.40625 -1.640625 -1.171875q-0.640625 -0.78125 -0.953125 -1.921875q-0.3125 -1.140625 -0.3125 -2.625q0 -1.421875 0.34375 -2.578125q0.34375 -1.15625 1.03125 -1.96875q0.6875 -0.8125 1.703125 -1.25q1.03125 -0.453125 2.40625 -0.453125q1.328125 0 2.3125 0.40625q0.984375 0.390625 1.640625 1.15625q0.65625 0.765625 0.96875 1.90625q0.328125 1.125 0.328125 2.578125zm-1.6875 0.109375q0 -1.015625 -0.1875 -1.890625q-0.171875 -0.875 -0.59375 -1.515625q-0.421875 -0.65625 -1.125 -1.015625q-0.703125 -0.359375 -1.75 -0.359375q-1.03125 0 -1.734375 0.390625q-0.703125 0.390625 -1.15625 1.046875q-0.4375 0.640625 -0.625 1.515625q-0.1875 0.859375 -0.1875 1.8125q0 1.0625 0.171875 1.953125q0.171875 0.890625 0.59375 1.53125q0.421875 0.640625 1.125 1.0q0.703125 0.359375 1.75 0.359375q1.046875 0 1.765625 -0.390625q0.71875 -0.390625 1.15625 -1.046875q0.4375 -0.671875 0.609375 -1.546875q0.1875 -0.875 0.1875 -1.84375zm13.055603 5.375q0 0.1875 -0.0625 0.3125q-0.0625 0.125 -0.15625 0.21875q-0.09375 0.078125 -0.21875 0.125q-0.125 0.03125 -0.25 0.03125l-0.5 0q-0.25 0 -0.4375 -0.046875q-0.171875 -0.0625 -0.34375 -0.1875q-0.15625 -0.140625 -0.3125 -0.375q-0.15625 -0.234375 -0.359375 -0.59375l-3.78125 -6.828125q-0.296875 -0.53125 -0.609375 -1.109375q-0.296875 -0.578125 -0.546875 -1.125l-0.015625 0q0.015625 0.671875 0.015625 1.375q0.015625 0.6875 0.015625 1.375l0 7.25q0 0.0625 -0.046875 0.125q-0.03125 0.046875 -0.125 0.09375q-0.078125 0.03125 -0.234375 0.046875q-0.140625 0.03125 -0.359375 0.03125q-0.21875 0 -0.359375 -0.03125q-0.140625 -0.015625 -0.234375 -0.046875q-0.078125 -0.046875 -0.125 -0.09375q-0.03125 -0.0625 -0.03125 -0.125l0 -11.078125q0 -0.375 0.203125 -0.53125q0.203125 -0.15625 0.453125 -0.15625l0.75 0q0.28125 0 0.453125 0.046875q0.1875 0.046875 0.328125 0.15625q0.140625 0.09375 0.265625 0.296875q0.140625 0.1875 0.296875 0.46875l2.921875 5.265625q0.265625 0.484375 0.515625 0.953125q0.25 0.453125 0.484375 0.90625q0.234375 0.4375 0.453125 0.875q0.234375 0.421875 0.453125 0.859375l0.015625 0q-0.015625 -0.734375 -0.03125 -1.515625q0 -0.796875 0 -1.53125l0 -6.515625q0 -0.0625 0.03125 -0.109375q0.046875 -0.0625 0.125 -0.109375q0.09375 -0.046875 0.234375 -0.0625q0.140625 -0.015625 0.375 -0.015625q0.203125 0 0.34375 0.015625q0.15625 0.015625 0.234375 0.0625q0.09375 0.046875 0.125 0.109375q0.046875 0.046875 0.046875 0.109375l0 11.078125zm15.197968 0.421875q0 0.0625 -0.03125 0.125q-0.03125 0.046875 -0.125 0.09375q-0.09375 0.03125 -0.265625 0.046875q-0.15625 0.03125 -0.4375 0.03125q-0.25 0 -0.40625 -0.03125q-0.140625 -0.015625 -0.234375 -0.046875q-0.09375 -0.046875 -0.15625 -0.125q-0.046875 -0.078125 -0.078125 -0.1875l-1.109375 -2.828125q-0.1875 -0.484375 -0.40625 -0.875q-0.203125 -0.40625 -0.5 -0.703125q-0.28125 -0.296875 -0.671875 -0.453125q-0.375 -0.171875 -0.921875 -0.171875l-1.078125 0l0 5.125q0 0.0625 -0.046875 0.125q-0.03125 0.046875 -0.125 0.09375q-0.078125 0.03125 -0.234375 0.046875q-0.15625 0.03125 -0.390625 0.03125q-0.234375 0 -0.390625 -0.03125q-0.140625 -0.015625 -0.234375 -0.046875q-0.09375 -0.046875 -0.140625 -0.09375q-0.03125 -0.0625 -0.03125 -0.125l0 -11.125q0 -0.359375 0.1875 -0.5q0.1875 -0.140625 0.40625 -0.140625l2.546875 0q0.46875 0 0.765625 0.03125q0.296875 0.015625 0.546875 0.03125q0.6875 0.125 1.21875 0.390625q0.53125 0.25 0.890625 0.65625q0.375 0.390625 0.546875 0.90625q0.1875 0.515625 0.1875 1.140625q0 0.609375 -0.171875 1.09375q-0.15625 0.46875 -0.46875 0.84375q-0.296875 0.359375 -0.734375 0.625q-0.421875 0.265625 -0.953125 0.453125q0.296875 0.125 0.53125 0.328125q0.25 0.203125 0.453125 0.484375q0.21875 0.28125 0.40625 0.640625q0.1875 0.359375 0.375 0.8125l1.0625 2.640625q0.140625 0.34375 0.171875 0.484375q0.046875 0.125 0.046875 0.203125zm-2.40625 -8.4375q0 -0.703125 -0.328125 -1.1875q-0.3125 -0.5 -1.046875 -0.703125q-0.234375 -0.0625 -0.53125 -0.09375q-0.28125 -0.03125 -0.765625 -0.03125l-1.34375 0l0 4.046875l1.5625 0q0.625 0 1.078125 -0.15625q0.46875 -0.15625 0.765625 -0.421875q0.3125 -0.28125 0.453125 -0.640625q0.15625 -0.375 0.15625 -0.8125zm11.473511 3.90625q0 0.359375 -0.1875 0.515625q-0.171875 0.15625 -0.40625 0.15625l-5.46875 0q0 0.6875 0.125 1.25q0.140625 0.546875 0.46875 0.953125q0.328125 0.390625 0.84375 0.609375q0.515625 0.21875 1.28125 0.21875q0.59375 0 1.046875 -0.09375q0.46875 -0.109375 0.796875 -0.21875q0.34375 -0.125 0.5625 -0.21875q0.21875 -0.109375 0.328125 -0.109375q0.0625 0 0.109375 0.03125q0.0625 0.03125 0.09375 0.109375q0.03125 0.0625 0.03125 0.1875q0.015625 0.109375 0.015625 0.265625q0 0.125 -0.015625 0.21875q0 0.078125 -0.015625 0.15625q-0.015625 0.0625 -0.046875 0.125q-0.03125 0.046875 -0.078125 0.109375q-0.046875 0.046875 -0.296875 0.171875q-0.25 0.109375 -0.65625 0.21875q-0.390625 0.109375 -0.921875 0.1875q-0.53125 0.09375 -1.125 0.09375q-1.015625 0 -1.796875 -0.28125q-0.78125 -0.296875 -1.3125 -0.859375q-0.515625 -0.5625 -0.796875 -1.40625q-0.265625 -0.859375 -0.265625 -2.0q0 -1.078125 0.28125 -1.921875q0.28125 -0.859375 0.796875 -1.453125q0.53125 -0.609375 1.265625 -0.921875q0.75 -0.328125 1.671875 -0.328125q0.984375 0 1.671875 0.3125q0.6875 0.3125 1.125 0.859375q0.453125 0.53125 0.65625 1.25q0.21875 0.71875 0.21875 1.53125l0 0.28125zm-1.546875 -0.453125q0.03125 -1.203125 -0.53125 -1.890625q-0.5625 -0.6875 -1.65625 -0.6875q-0.578125 0 -1.0 0.21875q-0.421875 0.203125 -0.71875 0.5625q-0.28125 0.34375 -0.4375 0.8125q-0.15625 0.46875 -0.171875 0.984375l4.515625 0zm8.938812 2.71875q0 0.640625 -0.234375 1.140625q-0.234375 0.5 -0.671875 0.84375q-0.4375 0.34375 -1.046875 0.515625q-0.59375 0.171875 -1.3125 0.171875q-0.453125 0 -0.859375 -0.078125q-0.390625 -0.0625 -0.71875 -0.15625q-0.3125 -0.109375 -0.546875 -0.21875q-0.21875 -0.125 -0.328125 -0.21875q-0.09375 -0.09375 -0.140625 -0.25q-0.046875 -0.171875 -0.046875 -0.46875q0 -0.171875 0.015625 -0.296875q0.015625 -0.125 0.046875 -0.1875q0.03125 -0.078125 0.078125 -0.109375q0.0625 -0.03125 0.125 -0.03125q0.09375 0 0.296875 0.125q0.203125 0.125 0.484375 0.28125q0.296875 0.140625 0.6875 0.265625q0.40625 0.125 0.9375 0.125q0.375 0 0.6875 -0.078125q0.328125 -0.09375 0.5625 -0.25q0.234375 -0.171875 0.359375 -0.421875q0.125 -0.25 0.125 -0.59375q0 -0.34375 -0.1875 -0.578125q-0.1875 -0.25 -0.484375 -0.4375q-0.296875 -0.1875 -0.671875 -0.328125q-0.359375 -0.140625 -0.765625 -0.296875q-0.390625 -0.15625 -0.765625 -0.359375q-0.375 -0.203125 -0.671875 -0.484375q-0.296875 -0.296875 -0.484375 -0.6875q-0.171875 -0.40625 -0.171875 -0.953125q0 -0.5 0.1875 -0.9375q0.203125 -0.453125 0.578125 -0.796875q0.375 -0.34375 0.9375 -0.546875q0.578125 -0.203125 1.34375 -0.203125q0.328125 0 0.65625 0.0625q0.34375 0.046875 0.609375 0.140625q0.265625 0.078125 0.453125 0.171875q0.203125 0.09375 0.296875 0.171875q0.09375 0.078125 0.125 0.140625q0.03125 0.046875 0.046875 0.125q0.015625 0.0625 0.03125 0.171875q0.015625 0.09375 0.015625 0.234375q0 0.171875 -0.015625 0.28125q-0.015625 0.109375 -0.046875 0.1875q-0.03125 0.078125 -0.078125 0.109375q-0.046875 0.03125 -0.09375 0.03125q-0.09375 0 -0.25 -0.09375q-0.15625 -0.109375 -0.40625 -0.21875q-0.25 -0.125 -0.59375 -0.21875q-0.328125 -0.109375 -0.765625 -0.109375q-0.390625 0 -0.6875 0.09375q-0.296875 0.078125 -0.5 0.25q-0.1875 0.15625 -0.28125 0.390625q-0.09375 0.21875 -0.09375 0.46875q0 0.359375 0.1875 0.609375q0.1875 0.25 0.484375 0.4375q0.296875 0.1875 0.671875 0.34375q0.375 0.140625 0.765625 0.296875q0.40625 0.15625 0.78125 0.359375q0.390625 0.1875 0.6875 0.46875q0.296875 0.265625 0.46875 0.65625q0.1875 0.390625 0.1875 0.9375zm9.734222 -2.03125q0 1.09375 -0.234375 1.96875q-0.234375 0.859375 -0.703125 1.46875q-0.453125 0.609375 -1.125 0.9375q-0.671875 0.328125 -1.546875 0.328125q-0.375 0 -0.6875 -0.078125q-0.3125 -0.0625 -0.625 -0.21875q-0.296875 -0.15625 -0.59375 -0.390625q-0.296875 -0.25 -0.625 -0.578125l0 4.171875q0 0.078125 -0.046875 0.125q-0.03125 0.0625 -0.125 0.09375q-0.078125 0.046875 -0.234375 0.0625q-0.140625 0.015625 -0.359375 0.015625q-0.234375 0 -0.390625 -0.015625q-0.140625 -0.015625 -0.234375 -0.0625q-0.078125 -0.03125 -0.109375 -0.09375q-0.03125 -0.046875 -0.03125 -0.125l0 -11.65625q0 -0.09375 0.015625 -0.140625q0.03125 -0.046875 0.109375 -0.078125q0.09375 -0.046875 0.21875 -0.0625q0.140625 -0.015625 0.328125 -0.015625q0.1875 0 0.3125 0.015625q0.125 0.015625 0.203125 0.0625q0.09375 0.03125 0.125 0.078125q0.03125 0.046875 0.03125 0.140625l0 1.125q0.375 -0.390625 0.71875 -0.671875q0.359375 -0.296875 0.71875 -0.484375q0.359375 -0.1875 0.734375 -0.28125q0.375 -0.109375 0.796875 -0.109375q0.90625 0 1.546875 0.359375q0.640625 0.34375 1.046875 0.96875q0.40625 0.609375 0.578125 1.421875q0.1875 0.796875 0.1875 1.71875zm-1.609375 0.171875q0 -0.640625 -0.09375 -1.234375q-0.09375 -0.609375 -0.34375 -1.0625q-0.234375 -0.46875 -0.640625 -0.75q-0.390625 -0.28125 -0.984375 -0.28125q-0.296875 0 -0.578125 0.09375q-0.28125 0.09375 -0.578125 0.28125q-0.296875 0.1875 -0.625 0.5q-0.328125 0.3125 -0.6875 0.765625l0 3.3125q0.625 0.78125 1.1875 1.1875q0.578125 0.40625 1.1875 0.40625q0.578125 0 0.984375 -0.28125q0.421875 -0.28125 0.671875 -0.734375q0.265625 -0.46875 0.375 -1.046875q0.125 -0.578125 0.125 -1.15625zm11.504944 -0.140625q0 1.015625 -0.28125 1.875q-0.265625 0.859375 -0.796875 1.484375q-0.53125 0.625 -1.34375 0.96875q-0.796875 0.34375 -1.84375 0.34375q-1.03125 0 -1.796875 -0.296875q-0.765625 -0.3125 -1.28125 -0.890625q-0.5 -0.59375 -0.765625 -1.421875q-0.25 -0.84375 -0.25 -1.890625q0 -1.03125 0.265625 -1.875q0.265625 -0.859375 0.796875 -1.484375q0.546875 -0.625 1.34375 -0.96875q0.796875 -0.34375 1.859375 -0.34375q1.03125 0 1.796875 0.3125q0.765625 0.296875 1.265625 0.890625q0.515625 0.578125 0.765625 1.421875q0.265625 0.828125 0.265625 1.875zm-1.609375 0.109375q0 -0.6875 -0.140625 -1.28125q-0.125 -0.609375 -0.40625 -1.0625q-0.28125 -0.453125 -0.78125 -0.71875q-0.484375 -0.265625 -1.21875 -0.265625q-0.6875 0 -1.171875 0.25q-0.484375 0.234375 -0.796875 0.671875q-0.3125 0.4375 -0.46875 1.046875q-0.15625 0.59375 -0.15625 1.3125q0 0.6875 0.125 1.296875q0.125 0.59375 0.421875 1.046875q0.296875 0.453125 0.78125 0.71875q0.5 0.265625 1.21875 0.265625q0.671875 0 1.15625 -0.234375q0.5 -0.25 0.8125 -0.6875q0.328125 -0.4375 0.46875 -1.03125q0.15625 -0.609375 0.15625 -1.328125zm10.869507 4.15625q0 0.078125 -0.046875 0.125q-0.03125 0.046875 -0.109375 0.09375q-0.078125 0.03125 -0.234375 0.046875q-0.140625 0.03125 -0.375 0.03125q-0.234375 0 -0.390625 -0.03125q-0.140625 -0.015625 -0.21875 -0.046875q-0.078125 -0.046875 -0.125 -0.09375q-0.03125 -0.046875 -0.03125 -0.125l0 -4.890625q0 -0.703125 -0.109375 -1.140625q-0.109375 -0.4375 -0.328125 -0.75q-0.21875 -0.328125 -0.5625 -0.484375q-0.328125 -0.171875 -0.765625 -0.171875q-0.578125 0 -1.15625 0.40625q-0.578125 0.40625 -1.203125 1.203125l0 5.828125q0 0.078125 -0.046875 0.125q-0.03125 0.046875 -0.125 0.09375q-0.078125 0.03125 -0.234375 0.046875q-0.140625 0.03125 -0.359375 0.03125q-0.234375 0 -0.390625 -0.03125q-0.140625 -0.015625 -0.234375 -0.046875q-0.078125 -0.046875 -0.109375 -0.09375q-0.03125 -0.046875 -0.03125 -0.125l0 -8.34375q0 -0.078125 0.015625 -0.125q0.03125 -0.0625 0.109375 -0.09375q0.09375 -0.046875 0.21875 -0.0625q0.140625 -0.015625 0.34375 -0.015625q0.203125 0 0.34375 0.015625q0.140625 0.015625 0.203125 0.0625q0.078125 0.03125 0.109375 0.09375q0.03125 0.046875 0.03125 0.125l0 1.09375q0.703125 -0.78125 1.40625 -1.140625q0.703125 -0.375 1.421875 -0.375q0.828125 0 1.390625 0.28125q0.578125 0.28125 0.921875 0.765625q0.359375 0.46875 0.515625 1.109375q0.15625 0.625 0.15625 1.515625l0 5.09375zm7.848694 -2.265625q0 0.640625 -0.234375 1.140625q-0.234375 0.5 -0.671875 0.84375q-0.4375 0.34375 -1.046875 0.515625q-0.59375 0.171875 -1.3125 0.171875q-0.453125 0 -0.859375 -0.078125q-0.390625 -0.0625 -0.71875 -0.15625q-0.3125 -0.109375 -0.546875 -0.21875q-0.21875 -0.125 -0.328125 -0.21875q-0.09375 -0.09375 -0.140625 -0.25q-0.046875 -0.171875 -0.046875 -0.46875q0 -0.171875 0.015625 -0.296875q0.015625 -0.125 0.046875 -0.1875q0.03125 -0.078125 0.078125 -0.109375q0.0625 -0.03125 0.125 -0.03125q0.09375 0 0.296875 0.125q0.203125 0.125 0.484375 0.28125q0.296875 0.140625 0.6875 0.265625q0.40625 0.125 0.9375 0.125q0.375 0 0.6875 -0.078125q0.328125 -0.09375 0.5625 -0.25q0.234375 -0.171875 0.359375 -0.421875q0.125 -0.25 0.125 -0.59375q0 -0.34375 -0.1875 -0.578125q-0.1875 -0.25 -0.484375 -0.4375q-0.296875 -0.1875 -0.671875 -0.328125q-0.359375 -0.140625 -0.765625 -0.296875q-0.390625 -0.15625 -0.765625 -0.359375q-0.375 -0.203125 -0.671875 -0.484375q-0.296875 -0.296875 -0.484375 -0.6875q-0.171875 -0.40625 -0.171875 -0.953125q0 -0.5 0.1875 -0.9375q0.203125 -0.453125 0.578125 -0.796875q0.375 -0.34375 0.9375 -0.546875q0.578125 -0.203125 1.34375 -0.203125q0.328125 0 0.65625 0.0625q0.34375 0.046875 0.609375 0.140625q0.265625 0.078125 0.453125 0.171875q0.203125 0.09375 0.296875 0.171875q0.09375 0.078125 0.125 0.140625q0.03125 0.046875 0.046875 0.125q0.015625 0.0625 0.03125 0.171875q0.015625 0.09375 0.015625 0.234375q0 0.171875 -0.015625 0.28125q-0.015625 0.109375 -0.046875 0.1875q-0.03125 0.078125 -0.078125 0.109375q-0.046875 0.03125 -0.09375 0.03125q-0.09375 0 -0.25 -0.09375q-0.15625 -0.109375 -0.40625 -0.21875q-0.25 -0.125 -0.59375 -0.21875q-0.328125 -0.109375 -0.765625 -0.109375q-0.390625 0 -0.6875 0.09375q-0.296875 0.078125 -0.5 0.25q-0.1875 0.15625 -0.28125 0.390625q-0.09375 0.21875 -0.09375 0.46875q0 0.359375 0.1875 0.609375q0.1875 0.25 0.484375 0.4375q0.296875 0.1875 0.671875 0.34375q0.375 0.140625 0.765625 0.296875q0.40625 0.15625 0.78125 0.359375q0.390625 0.1875 0.6875 0.46875q0.296875 0.265625 0.46875 0.65625q0.1875 0.390625 0.1875 0.9375zm9.187317 -2.265625q0 0.359375 -0.1875 0.515625q-0.171875 0.15625 -0.40625 0.15625l-5.46875 0q0 0.6875 0.125 1.25q0.140625 0.546875 0.46875 0.953125q0.328125 0.390625 0.84375 0.609375q0.515625 0.21875 1.28125 0.21875q0.59375 0 1.046875 -0.09375q0.46875 -0.109375 0.796875 -0.21875q0.34375 -0.125 0.5625 -0.21875q0.21875 -0.109375 0.328125 -0.109375q0.0625 0 0.109375 0.03125q0.0625 0.03125 0.09375 0.109375q0.03125 0.0625 0.03125 0.1875q0.015625 0.109375 0.015625 0.265625q0 0.125 -0.015625 0.21875q0 0.078125 -0.015625 0.15625q-0.015625 0.0625 -0.046875 0.125q-0.03125 0.046875 -0.078125 0.109375q-0.046875 0.046875 -0.296875 0.171875q-0.25 0.109375 -0.65625 0.21875q-0.390625 0.109375 -0.921875 0.1875q-0.53125 0.09375 -1.125 0.09375q-1.015625 0 -1.796875 -0.28125q-0.78125 -0.296875 -1.3125 -0.859375q-0.515625 -0.5625 -0.796875 -1.40625q-0.265625 -0.859375 -0.265625 -2.0q0 -1.078125 0.28125 -1.921875q0.28125 -0.859375 0.796875 -1.453125q0.53125 -0.609375 1.265625 -0.921875q0.75 -0.328125 1.671875 -0.328125q0.984375 0 1.671875 0.3125q0.6875 0.3125 1.125 0.859375q0.453125 0.53125 0.65625 1.25q0.21875 0.71875 0.21875 1.53125l0 0.28125zm-1.546875 -0.453125q0.03125 -1.203125 -0.53125 -1.890625q-0.5625 -0.6875 -1.65625 -0.6875q-0.578125 0 -1.0 0.21875q-0.421875 0.203125 -0.71875 0.5625q-0.28125 0.34375 -0.4375 0.8125q-0.15625 0.46875 -0.171875 0.984375l4.515625 0z" fill-rule="nonzero"></path></g></svg>

